<svg version="1.1" xmlns="http://www.w3.org/2000/svg" viewBox="0 0 1980.5769388412132 2189.153806656122" width="1980.5769388412132" height="2189.153806656122" filter="invert(93%) hue-rotate(180deg)">
  <!-- svg-source:excalidraw -->
  
  <defs>
    <style class="style-fonts">
      @font-face {
        font-family: "Virgil";
        src: url("https://excalidraw.com/Virgil.woff2");
      }
      @font-face {
        font-family: "Cascadia";
        src: url("https://excalidraw.com/Cascadia.woff2");
      }
    </style>
    
  </defs>
  <rect x="0" y="0" width="1980.5769388412132" height="2189.153806656122" fill="#ffffff"></rect><g stroke-linecap="round" transform="translate(408.58472394186344 10) rotate(0 128.66665649414068 37.00000762939454)"><path d="M18.5 0 C68.72 -2.44, 121.79 -0.53, 238.83 0 M18.5 0 C75.32 -1.25, 131.68 -0.92, 238.83 0 M238.83 0 C251.36 -0.12, 256.77 4.94, 257.33 18.5 M238.83 0 C251.5 0.91, 256.07 6.02, 257.33 18.5 M257.33 18.5 C256.31 32.34, 258.85 42.74, 257.33 55.5 M257.33 18.5 C257.6 25.25, 258.01 33.29, 257.33 55.5 M257.33 55.5 C255.61 68.83, 251.73 72.52, 238.83 74 M257.33 55.5 C255.05 70.06, 251.8 73.19, 238.83 74 M238.83 74 C153.16 76.84, 63.78 74.47, 18.5 74 M238.83 74 C185.12 75.27, 132.13 74.8, 18.5 74 M18.5 74 C7.27 73.69, 1.34 66.08, 0 55.5 M18.5 74 C5.93 73.92, -0.29 68.22, 0 55.5 M0 55.5 C-1.23 41.79, -0.09 30.51, 0 18.5 M0 55.5 C0.68 40.02, 0.62 26.09, 0 18.5 M0 18.5 C-0.35 4.86, 5.49 0.77, 18.5 0 M0 18.5 C-1.17 5.55, 7.09 1.59, 18.5 0" stroke="#c2255c" stroke-width="2" fill="none"></path></g><g transform="translate(462.17144726950016 34.50000762939453) rotate(0 75.07993316650396 12.5)"><text x="75.0799331665039" y="0" font-family="Virgil, Segoe UI Emoji" font-size="20px" fill="#c2255c" text-anchor="middle" style="white-space: pre;" direction="ltr" dominant-baseline="text-before-edge">Boilerplace Init</text></g><g stroke-linecap="round"><g transform="translate(535.1428439338018 95.33334350585938) rotate(0 -1.1294372002107025 36.24262109503501)"><path d="M0.12 0.05 C-0.26 12.11, -1.9 60.31, -2.31 72.4 M-0.01 -0.05 C-0.4 12.01, -1.97 60.47, -2.38 72.54" stroke="#1e1e1e" stroke-width="2" fill="none"></path></g><g transform="translate(535.1428439338018 95.33334350585938) rotate(0 -1.1294372002107025 36.24262109503501)"><path d="M-11.7 44.02 C-8.95 52.28, -6.63 60.22, -2.38 72.54 M-11.7 44.02 C-8.12 54.5, -4.95 65, -2.38 72.54" stroke="#1e1e1e" stroke-width="2" fill="none"></path></g><g transform="translate(535.1428439338018 95.33334350585938) rotate(0 -1.1294372002107025 36.24262109503501)"><path d="M8.81 44.7 C5.78 52.78, 2.31 60.53, -2.38 72.54 M8.81 44.7 C4.82 54.94, 0.44 65.19, -2.38 72.54" stroke="#1e1e1e" stroke-width="2" fill="none"></path></g></g><mask></mask><g stroke-linecap="round" transform="translate(403.5371034410264 168) rotate(0 126.33332824707031 85)"><path d="M158.75 21.5 C183.17 36.6, 203.38 51.91, 220.92 64.5 M158.75 21.5 C172.21 31.81, 185.19 39.81, 220.92 64.5 M220.92 64.5 C251.55 87.79, 253.75 85.36, 220.92 107.5 M220.92 64.5 C251.87 86.37, 250.74 88.06, 220.92 107.5 M220.92 107.5 C205.31 116.58, 187.06 127.32, 158.75 148.5 M220.92 107.5 C205.95 118.33, 189.47 128.38, 158.75 148.5 M158.75 148.5 C127.31 168.01, 125.53 170.54, 95.25 148.5 M158.75 148.5 C127 171.04, 128.68 170.97, 95.25 148.5 M95.25 148.5 C77.1 137.06, 55.18 124.04, 31.75 107.5 M95.25 148.5 C74.62 133.99, 52.08 121.2, 31.75 107.5 M31.75 107.5 C0.36 84.15, 1 85.26, 31.75 64.5 M31.75 107.5 C-0.94 84.98, 1.24 87.84, 31.75 64.5 M31.75 64.5 C50.79 53.42, 68.35 38.67, 95.25 21.5 M31.75 64.5 C57.4 47.95, 81.09 31.42, 95.25 21.5 M95.25 21.5 C126.95 0.7, 127.34 0.9, 158.75 21.5 M95.25 21.5 C128.68 -1.84, 125.11 -1.37, 158.75 21.5" stroke="#2f9e44" stroke-width="2" fill="none"></path></g><g transform="translate(476.3838136461045 215.5) rotate(0 53.31995391845703 37.5)"><text x="53.31995391845703" y="0" font-family="Virgil, Segoe UI Emoji" font-size="20px" fill="#2f9e44" text-anchor="middle" style="white-space: pre;" direction="ltr" dominant-baseline="text-before-edge">Is </text><text x="53.31995391845703" y="25" font-family="Virgil, Segoe UI Emoji" font-size="20px" fill="#2f9e44" text-anchor="middle" style="white-space: pre;" direction="ltr" dominant-baseline="text-before-edge">workspace </text><text x="53.31995391845703" y="50" font-family="Virgil, Segoe UI Emoji" font-size="20px" fill="#2f9e44" text-anchor="middle" style="white-space: pre;" direction="ltr" dominant-baseline="text-before-edge">open?</text></g><g stroke-linecap="round"><g transform="translate(656.9974447977654 238.9416573840366) rotate(0 64.13511589207656 -0.011290768473344315)"><path d="M-0.04 -0.1 C21.36 -0.13, 106.92 -0.15, 128.31 -0.19 M0.21 0.17 C21.6 0.16, 106.88 0.06, 128.22 0" stroke="#1e1e1e" stroke-width="2" fill="none"></path></g><g transform="translate(656.9974447977654 238.9416573840366) rotate(0 64.13511589207656 -0.011290768473344315)"><path d="M100.05 10.31 C106.39 8.04, 113.13 5.65, 128.22 0 M100.05 10.31 C106.06 8.06, 112.36 5.88, 128.22 0" stroke="#1e1e1e" stroke-width="2" fill="none"></path></g><g transform="translate(656.9974447977654 238.9416573840366) rotate(0 64.13511589207656 -0.011290768473344315)"><path d="M100.01 -10.21 C106.37 -7.72, 113.11 -5.34, 128.22 0 M100.01 -10.21 C106 -7.99, 112.32 -5.71, 128.22 0" stroke="#1e1e1e" stroke-width="2" fill="none"></path></g></g><mask></mask><g transform="translate(706.2038209703232 204) rotate(0 11.979988098144531 12.5)"><text x="0" y="0" font-family="Virgil, Segoe UI Emoji" font-size="20px" fill="#1e1e1e" text-anchor="start" style="white-space: pre;" direction="ltr" dominant-baseline="text-before-edge">No</text></g><g stroke-linecap="round" transform="translate(791.2514632694306 185.4285670689174) rotate(0 97.00006103515625 53)"><path d="M26.5 0 C57.6 3.12, 88.07 -0.04, 167.5 0 M26.5 0 C56.13 -0.12, 87.38 0.17, 167.5 0 M167.5 0 C183.3 -1.06, 192.82 8.23, 194 26.5 M167.5 0 C186.27 0.92, 193.91 11.11, 194 26.5 M194 26.5 C195.17 41.69, 192.75 54.79, 194 79.5 M194 26.5 C194.55 46.32, 194.28 67.45, 194 79.5 M194 79.5 C194.29 98.7, 183.46 107.73, 167.5 106 M194 79.5 C192.09 98.78, 185.06 108.13, 167.5 106 M167.5 106 C131.01 108.73, 92.44 105.56, 26.5 106 M167.5 106 C125.03 106.33, 82.02 106.01, 26.5 106 M26.5 106 C8.17 105.74, -0.99 98.33, 0 79.5 M26.5 106 C10.85 105.6, 0.73 97.8, 0 79.5 M0 79.5 C1.85 64.25, -0.09 48.91, 0 26.5 M0 79.5 C-0.39 59.51, 0.43 37.65, 0 26.5 M0 26.5 C1.32 9.65, 9.91 -1.29, 26.5 0 M0 26.5 C-0.89 10.6, 10.89 -2.04, 26.5 0" stroke="#f08c00" stroke-width="2" fill="none"></path></g><g transform="translate(799.6715835086884 200.9285670689174) rotate(0 88.57994079589844 37.5)"><text x="88.57994079589844" y="0" font-family="Virgil, Segoe UI Emoji" font-size="20px" fill="#f08c00" text-anchor="middle" style="white-space: pre;" direction="ltr" dominant-baseline="text-before-edge">Show: "Open a new</text><text x="88.57994079589844" y="25" font-family="Virgil, Segoe UI Emoji" font-size="20px" fill="#f08c00" text-anchor="middle" style="white-space: pre;" direction="ltr" dominant-baseline="text-before-edge">workspace to </text><text x="88.57994079589844" y="50" font-family="Virgil, Segoe UI Emoji" font-size="20px" fill="#f08c00" text-anchor="middle" style="white-space: pre;" direction="ltr" dominant-baseline="text-before-edge">start"</text></g><g stroke-linecap="round"><g transform="translate(890.6018397910284 178.09522356305803) rotate(0 -109.04939906596269 -64.56030959837265)"><path d="M0.17 -0.71 C-4.13 -19.67, 11.45 -93.2, -24.78 -114.86 C-61.01 -136.52, -185.2 -127.99, -217.22 -130.66 M-1.2 1.54 C-5.75 -17.19, 10.43 -91.83, -25.74 -113.69 C-61.92 -135.55, -186.43 -126.88, -218.27 -129.62" stroke="#1e1e1e" stroke-width="2" fill="none"></path></g><g transform="translate(890.6018397910284 178.09522356305803) rotate(0 -109.04939906596269 -64.56030959837265)"><path d="M-189.97 -139.58 C-202.13 -135.76, -213.02 -132.76, -218.27 -129.62 M-189.97 -139.58 C-197.3 -136.49, -203.77 -135.17, -218.27 -129.62" stroke="#1e1e1e" stroke-width="2" fill="none"></path></g><g transform="translate(890.6018397910284 178.09522356305803) rotate(0 -109.04939906596269 -64.56030959837265)"><path d="M-190.19 -119.06 C-202.08 -123.14, -212.88 -128.05, -218.27 -129.62 M-190.19 -119.06 C-197.42 -121.21, -203.84 -125.14, -218.27 -129.62" stroke="#1e1e1e" stroke-width="2" fill="none"></path></g></g><mask></mask><g stroke-linecap="round"><g transform="translate(531.8695926304866 344.4165110011747) rotate(0 -1.1240601125426224 24.50635650532567)"><path d="M-0.02 -0.09 C-0.36 8.04, -1.77 40.77, -2.16 48.91 M-0.21 0.19 C-0.56 8.34, -1.92 40.99, -2.23 49.1" stroke="#1e1e1e" stroke-width="2" fill="none"></path></g><g transform="translate(531.8695926304866 344.4165110011747) rotate(0 -1.1240601125426224 24.50635650532567)"><path d="M-9.67 25.77 C-8.05 31.53, -6.11 36.69, -2.23 49.1 M-9.67 25.77 C-8.18 30.54, -6.54 35.42, -2.23 49.1" stroke="#1e1e1e" stroke-width="2" fill="none"></path></g><g transform="translate(531.8695926304866 344.4165110011747) rotate(0 -1.1240601125426224 24.50635650532567)"><path d="M7.06 26.45 C4.7 32.04, 2.64 37.04, -2.23 49.1 M7.06 26.45 C5.05 31.09, 3.18 35.82, -2.23 49.1" stroke="#1e1e1e" stroke-width="2" fill="none"></path></g></g><mask></mask><g stroke-linecap="round" transform="translate(394.5055409991552 395.41809808640267) rotate(0 137.03703138563372 135)"><path d="M172.5 34 C186.96 47.79, 200.64 63.31, 239.57 102 M172.5 34 C187.69 47.52, 202.3 63.21, 239.57 102 M239.57 102 C273.38 136.08, 273.02 134.99, 239.57 170 M239.57 102 C273.2 135.44, 271.91 135.26, 239.57 170 M239.57 170 C218.07 192.06, 192.47 215.26, 172.5 236 M239.57 170 C221.13 187.65, 203.36 203.72, 172.5 236 M172.5 236 C139.23 268.17, 136 268.93, 103.5 236 M172.5 236 C140.28 269.51, 138.4 269.44, 103.5 236 M103.5 236 C82.77 217.05, 57.72 194.94, 34.5 170 M103.5 236 C84.02 215.69, 62.51 197.45, 34.5 170 M34.5 170 C1.95 134.27, 1.01 135.86, 34.5 102 M34.5 170 C-0.96 135.17, -1.86 137.18, 34.5 102 M34.5 102 C52.76 82.06, 71.11 65.79, 103.5 34 M34.5 102 C49.63 86.92, 65.4 71.6, 103.5 34 M103.5 34 C138.94 0.88, 139.98 1.44, 172.5 34 M103.5 34 C136.28 1.39, 136.67 -0.85, 172.5 34" stroke="#2f9e44" stroke-width="2" fill="none"></path></g><g transform="translate(471.224107045976 467.91809808640267) rotate(0 60.29994964599604 62.5)"><text x="60.299949645996094" y="0" font-family="Virgil, Segoe UI Emoji" font-size="20px" fill="#2f9e44" text-anchor="middle" style="white-space: pre;" direction="ltr" dominant-baseline="text-before-edge">Does </text><text x="60.299949645996094" y="25" font-family="Virgil, Segoe UI Emoji" font-size="20px" fill="#2f9e44" text-anchor="middle" style="white-space: pre;" direction="ltr" dominant-baseline="text-before-edge">package.json</text><text x="60.299949645996094" y="50" font-family="Virgil, Segoe UI Emoji" font-size="20px" fill="#2f9e44" text-anchor="middle" style="white-space: pre;" direction="ltr" dominant-baseline="text-before-edge">exist in </text><text x="60.299949645996094" y="75" font-family="Virgil, Segoe UI Emoji" font-size="20px" fill="#2f9e44" text-anchor="middle" style="white-space: pre;" direction="ltr" dominant-baseline="text-before-edge">current </text><text x="60.299949645996094" y="100" font-family="Virgil, Segoe UI Emoji" font-size="20px" fill="#2f9e44" text-anchor="middle" style="white-space: pre;" direction="ltr" dominant-baseline="text-before-edge">directory?</text></g><g stroke-linecap="round" transform="translate(792.6536326332696 458.7513466486855) rotate(0 106.66666666666674 72.22222222222229)"><path d="M32 0 C87.09 -0.38, 139.9 -1.29, 181.33 0 M32 0 C76.46 0.77, 118.26 0.89, 181.33 0 M181.33 0 C200.84 0.28, 214.29 11.02, 213.33 32 M181.33 0 C202.78 -0.8, 211.41 9.02, 213.33 32 M213.33 32 C214.64 51.85, 211.67 72.12, 213.33 112.44 M213.33 32 C212.73 57.31, 213.28 83.87, 213.33 112.44 M213.33 112.44 C212.89 135.09, 203.79 143.05, 181.33 144.44 M213.33 112.44 C214.2 131.66, 204.18 144.34, 181.33 144.44 M181.33 144.44 C148.3 142.99, 115.08 146.13, 32 144.44 M181.33 144.44 C151.41 145.37, 119.77 145.42, 32 144.44 M32 144.44 C10.48 142.72, 0.89 133.66, 0 112.44 M32 144.44 C8.59 142.41, 0.17 135.25, 0 112.44 M0 112.44 C0.37 96.81, -0.78 78.39, 0 32 M0 112.44 C0.31 93.02, -0.27 75.17, 0 32 M0 32 C1.13 10.97, 11.17 -0.89, 32 0 M0 32 C0.63 9.97, 9.12 0.81, 32 0" stroke="#f08c00" stroke-width="2" fill="none"></path></g><g transform="translate(806.1203786456392 493.4735688709078) rotate(0 93.19992065429688 37.5)"><text x="93.19992065429688" y="0" font-family="Virgil, Segoe UI Emoji" font-size="20px" fill="#f08c00" text-anchor="middle" style="white-space: pre;" direction="ltr" dominant-baseline="text-before-edge">Show "Initialise </text><text x="93.19992065429688" y="25" font-family="Virgil, Segoe UI Emoji" font-size="20px" fill="#f08c00" text-anchor="middle" style="white-space: pre;" direction="ltr" dominant-baseline="text-before-edge">node.js project to </text><text x="93.19992065429688" y="50" font-family="Virgil, Segoe UI Emoji" font-size="20px" fill="#f08c00" text-anchor="middle" style="white-space: pre;" direction="ltr" dominant-baseline="text-before-edge">start"</text></g><g stroke-linecap="round"><g transform="translate(672.6377330584817 528.4076092918419) rotate(0 56.962892734042725 1.9881496192206214)"><path d="M0.03 -0.15 C19.05 0.48, 95.04 3.27, 114.06 3.93 M-0.14 0.1 C18.87 0.76, 94.88 3.51, 113.93 4.13" stroke="#1e1e1e" stroke-width="2" fill="none"></path></g><g transform="translate(672.6377330584817 528.4076092918419) rotate(0 56.962892734042725 1.9881496192206214)"><path d="M85.4 13.41 C92.53 10.93, 100.29 8.76, 113.93 4.13 M85.4 13.41 C91.03 11.65, 96.86 9.81, 113.93 4.13" stroke="#1e1e1e" stroke-width="2" fill="none"></path></g><g transform="translate(672.6377330584817 528.4076092918419) rotate(0 56.962892734042725 1.9881496192206214)"><path d="M86.11 -7.1 C93.07 -4.24, 100.66 -1.06, 113.93 4.13 M86.11 -7.1 C91.62 -4.7, 97.31 -2.38, 113.93 4.13" stroke="#1e1e1e" stroke-width="2" fill="none"></path></g></g><mask></mask><g transform="translate(550.6959832812112 352.71961757114957) rotate(0 16.059982299804744 12.5)"><text x="0" y="0" font-family="Virgil, Segoe UI Emoji" font-size="20px" fill="#1e1e1e" text-anchor="start" style="white-space: pre;" direction="ltr" dominant-baseline="text-before-edge">Yes</text></g><g transform="translate(707.4684926593113 491.3439844525051) rotate(0 11.979988098144531 12.5)"><text x="0" y="0" font-family="Virgil, Segoe UI Emoji" font-size="20px" fill="#1e1e1e" text-anchor="start" style="white-space: pre;" direction="ltr" dominant-baseline="text-before-edge">No</text></g><g stroke-linecap="round"><g transform="translate(993.3944298880442 449.1217961387026) rotate(0 -143.5366579134294 -212.02983702172256)"><path d="M1.05 0.57 C5.64 -14.58, 29.57 -26.04, 27.23 -90.1 C24.88 -154.15, 44.59 -328.01, -13.01 -383.76 C-70.61 -439.52, -267.3 -417.84, -318.36 -424.63 M0.15 -0.18 C5.14 -15.75, 31.24 -27.65, 29.46 -91.88 C27.68 -156.11, 47.33 -330.23, -10.53 -385.55 C-68.39 -440.87, -266.6 -417.35, -317.72 -423.81" stroke="#1e1e1e" stroke-width="2" fill="none"></path></g><g transform="translate(993.3944298880442 449.1217961387026) rotate(0 -143.5366579134294 -212.02983702172256)"><path d="M-289.45 -433.83 C-296.16 -432.38, -303.77 -429.42, -317.72 -423.81 M-289.45 -433.83 C-300.56 -430.41, -310.93 -426.77, -317.72 -423.81" stroke="#1e1e1e" stroke-width="2" fill="none"></path></g><g transform="translate(993.3944298880442 449.1217961387026) rotate(0 -143.5366579134294 -212.02983702172256)"><path d="M-289.62 -413.31 C-296.43 -417.47, -303.99 -420.12, -317.72 -423.81 M-289.62 -413.31 C-300.8 -417.85, -311.1 -422.16, -317.72 -423.81" stroke="#1e1e1e" stroke-width="2" fill="none"></path></g></g><mask></mask><g stroke-linecap="round"><g transform="translate(529.9760465711008 665.9924335686648) rotate(0 -0.21240732270700846 39.24311465410341)"><path d="M0.07 -0.03 C-0.02 13.06, -0.44 65.4, -0.5 78.46 M-0.07 -0.17 C-0.12 12.95, -0.2 65.55, -0.24 78.66" stroke="#1e1e1e" stroke-width="2" fill="none"></path></g><g transform="translate(529.9760465711008 665.9924335686648) rotate(0 -0.21240732270700846 39.24311465410341)"><path d="M-10.44 50.45 C-7.13 59.53, -3.65 69.38, -0.24 78.66 M-10.44 50.45 C-7.98 57.54, -5.31 64.57, -0.24 78.66" stroke="#1e1e1e" stroke-width="2" fill="none"></path></g><g transform="translate(529.9760465711008 665.9924335686648) rotate(0 -0.21240732270700846 39.24311465410341)"><path d="M10.08 50.49 C6.58 59.57, 3.25 69.4, -0.24 78.66 M10.08 50.49 C7.4 57.6, 4.94 64.61, -0.24 78.66" stroke="#1e1e1e" stroke-width="2" fill="none"></path></g></g><mask></mask><g transform="translate(543.7758966169765 687.9993011637201) rotate(0 16.059982299804688 12.5)"><text x="0" y="0" font-family="Virgil, Segoe UI Emoji" font-size="20px" fill="#1e1e1e" text-anchor="start" style="white-space: pre;" direction="ltr" dominant-baseline="text-before-edge">Yes</text></g><g stroke-linecap="round" transform="translate(418.77797892737 754.6244248889742) rotate(0 115.2380807059152 37.80951145717074)"><path d="M18.9 0 C77.82 -0.94, 133.9 1.9, 211.57 0 M18.9 0 C85.6 1.36, 152.79 0.67, 211.57 0 M211.57 0 C225.28 -0.72, 231.8 8.26, 230.48 18.9 M211.57 0 C224.64 -1.45, 231.1 6.63, 230.48 18.9 M230.48 18.9 C230.93 24.99, 230.8 33.69, 230.48 56.71 M230.48 18.9 C230.45 33.83, 229.35 49.02, 230.48 56.71 M230.48 56.71 C232.12 67.45, 222.26 75.05, 211.57 75.62 M230.48 56.71 C228.65 69.84, 222.81 73.88, 211.57 75.62 M211.57 75.62 C172.99 75.8, 135.94 77.13, 18.9 75.62 M211.57 75.62 C167.38 76.95, 124.39 77.87, 18.9 75.62 M18.9 75.62 C6.93 76.01, 1.62 68.29, 0 56.71 M18.9 75.62 C6.99 74.9, 1.37 68.23, 0 56.71 M0 56.71 C-0.9 46.76, -1.02 33.87, 0 18.9 M0 56.71 C1.18 46.56, 0.35 34.78, 0 18.9 M0 18.9 C-1.73 4.49, 7.38 1.65, 18.9 0 M0 18.9 C-1.28 7.06, 4.19 0.47, 18.9 0" stroke="#1e1e1e" stroke-width="2" fill="none"></path></g><g transform="translate(437.31612372019924 779.933936346145) rotate(0 96.699935913086 12.5)"><text x="96.69993591308594" y="0" font-family="Virgil, Segoe UI Emoji" font-size="20px" fill="#1e1e1e" text-anchor="middle" style="white-space: pre;" direction="ltr" dominant-baseline="text-before-edge">Get workspace URI</text></g><g stroke-linecap="round" transform="translate(63.018725077311046 1240.6827332027374) rotate(0 105.92593722873261 40.37038167317701)"><path d="M20.19 0 C84.37 1.39, 145.69 2.61, 191.67 0 M20.19 0 C67.53 0.4, 113.38 -0.42, 191.67 0 M191.67 0 C204.59 0.15, 213.8 7.37, 211.85 20.19 M191.67 0 C204.46 0.24, 210.23 8.47, 211.85 20.19 M211.85 20.19 C212.81 36.26, 212.52 47.89, 211.85 60.56 M211.85 20.19 C212.72 34.95, 212.47 47.54, 211.85 60.56 M211.85 60.56 C211.31 75.42, 205.99 79.54, 191.67 80.74 M211.85 60.56 C211.38 72.14, 204.45 79.1, 191.67 80.74 M191.67 80.74 C142.52 79.27, 91.12 81.44, 20.19 80.74 M191.67 80.74 C126.36 82.68, 62.07 81.24, 20.19 80.74 M20.19 80.74 C6.58 82.17, -0.23 74.5, 0 60.56 M20.19 80.74 C5.87 80.56, 0.9 75.37, 0 60.56 M0 60.56 C-1.13 47.1, -0.12 30.47, 0 20.19 M0 60.56 C0.98 48.42, -0.35 36.71, 0 20.19 M0 20.19 C-0.9 8.56, 7.22 -0.42, 20.19 0 M0 20.19 C-1.3 5.08, 5.47 1.34, 20.19 0" stroke="#c2255c" stroke-width="2" fill="none"></path></g><g transform="translate(77.82474348280141 1268.5531148759142) rotate(0 91.11991882324219 12.5)"><text x="91.11991882324219" y="0" font-family="Virgil, Segoe UI Emoji" font-size="20px" fill="#c2255c" text-anchor="middle" style="white-space: pre;" direction="ltr" dominant-baseline="text-before-edge">Boilerplace Create</text></g><g stroke-linecap="round" transform="translate(387.68549346923805 898.9791877383276) rotate(0 145.59257846408423 44.66667175292969)"><path d="M22.33 0 C96.04 0.08, 172.3 -0.43, 268.85 0 M22.33 0 C95.1 -1.23, 168.32 -0.42, 268.85 0 M268.85 0 C284.33 -1.39, 290 7.97, 291.19 22.33 M268.85 0 C284.65 0.33, 290.41 6.18, 291.19 22.33 M291.19 22.33 C289.02 33.01, 291.11 41.19, 291.19 67 M291.19 22.33 C291.09 32.63, 290.74 41.94, 291.19 67 M291.19 67 C291.84 81.13, 285.28 90.75, 268.85 89.33 M291.19 67 C290.78 83.73, 282.98 88, 268.85 89.33 M268.85 89.33 C218.4 90.42, 167.15 90.47, 22.33 89.33 M268.85 89.33 C198.71 90.66, 129.71 90.75, 22.33 89.33 M22.33 89.33 C8.02 88.5, 1.34 80.93, 0 67 M22.33 89.33 C8.68 90.9, -0.99 80.46, 0 67 M0 67 C-0.69 52.04, 0.48 37.29, 0 22.33 M0 67 C-0.81 56.73, 0.65 47.11, 0 22.33 M0 22.33 C-0.22 8, 7.11 0.42, 22.33 0 M0 22.33 C0.41 8.13, 9.3 1.02, 22.33 0" stroke="#1e1e1e" stroke-width="2" fill="none"></path></g><g transform="translate(393.45818667941603 918.6458594912573) rotate(0 139.81988525390625 25)"><text x="139.81988525390625" y="0" font-family="Virgil, Segoe UI Emoji" font-size="20px" fill="#1e1e1e" text-anchor="middle" style="white-space: pre;" direction="ltr" dominant-baseline="text-before-edge">Create boilerplace.json in </text><text x="139.81988525390625" y="25" font-family="Virgil, Segoe UI Emoji" font-size="20px" fill="#1e1e1e" text-anchor="middle" style="white-space: pre;" direction="ltr" dominant-baseline="text-before-edge">workspace with input Schema</text></g><g stroke-linecap="round" transform="translate(10 1364.4880658104303) rotate(0 157.50001907348633 85)"><path d="M197.5 21.5 C216.06 32.85, 234.03 41.03, 275.5 64.5 M197.5 21.5 C213.87 29.3, 230.54 38.88, 275.5 64.5 M275.5 64.5 C315.22 84.98, 315.9 87.51, 275.5 107.5 M275.5 64.5 C315.87 85.24, 316.26 88.28, 275.5 107.5 M275.5 107.5 C257.56 115.67, 236.46 126.32, 197.5 148.5 M275.5 107.5 C251.69 120.53, 228.59 131.25, 197.5 148.5 M197.5 148.5 C156.19 168.87, 158.01 168.19, 118.5 148.5 M197.5 148.5 C159.07 171.66, 157.49 170.86, 118.5 148.5 M118.5 148.5 C92.56 135.99, 62.76 122.61, 39.5 107.5 M118.5 148.5 C98.28 137.24, 78.58 126.61, 39.5 107.5 M39.5 107.5 C0.79 86.87, 1.43 85.34, 39.5 64.5 M39.5 107.5 C1.3 84.08, -0.77 83.71, 39.5 64.5 M39.5 64.5 C55.7 53.62, 74.2 43.58, 118.5 21.5 M39.5 64.5 C64.02 49.8, 89.02 36.39, 118.5 21.5 M118.5 21.5 C157.25 1.7, 156.51 -1.75, 197.5 21.5 M118.5 21.5 C160.27 1.93, 157.43 -0.4, 197.5 21.5" stroke="#2f9e44" stroke-width="2" fill="none"></path></g><g transform="translate(96.16008186340332 1411.9880658104303) rotate(0 71.58992767333984 37.5)"><text x="71.58992767333984" y="0" font-family="Virgil, Segoe UI Emoji" font-size="20px" fill="#2f9e44" text-anchor="middle" style="white-space: pre;" direction="ltr" dominant-baseline="text-before-edge">Is </text><text x="71.58992767333984" y="25" font-family="Virgil, Segoe UI Emoji" font-size="20px" fill="#2f9e44" text-anchor="middle" style="white-space: pre;" direction="ltr" dominant-baseline="text-before-edge">boilerpalce.json</text><text x="71.58992767333984" y="50" font-family="Virgil, Segoe UI Emoji" font-size="20px" fill="#2f9e44" text-anchor="middle" style="white-space: pre;" direction="ltr" dominant-baseline="text-before-edge">present?</text></g><g stroke-linecap="round"><g transform="translate(170.00003814697266 1325.3214245750787) rotate(0 0.28441806814117854 16.662442543561838)"><path d="M-0.02 -0.08 C0.12 5.48, 0.66 27.82, 0.78 33.4 M-0.21 0.2 C-0.09 5.72, 0.43 27.68, 0.63 33.18" stroke="#1e1e1e" stroke-width="2" fill="none"></path></g><g transform="translate(170.00003814697266 1325.3214245750787) rotate(0 0.28441806814117854 16.662442543561838)"><path d="M-5.52 17.69 C-3.93 21.94, -1.95 26.16, 0.63 33.18 M-5.52 17.69 C-3.15 23.44, -1.02 29.02, 0.63 33.18" stroke="#1e1e1e" stroke-width="2" fill="none"></path></g><g transform="translate(170.00003814697266 1325.3214245750787) rotate(0 0.28441806814117854 16.662442543561838)"><path d="M5.87 17.36 C4.28 21.7, 3.05 26.02, 0.63 33.18 M5.87 17.36 C4.04 23.22, 1.96 28.92, 0.63 33.18" stroke="#1e1e1e" stroke-width="2" fill="none"></path></g></g><mask></mask><g stroke-linecap="round"><g transform="translate(167.0794926096546 1540.3398099230562) rotate(0 0.45716130722536263 25.237177458098245)"><path d="M-0.11 0.04 C0.04 8.48, 0.61 42.15, 0.74 50.55 M0.1 -0.07 C0.31 8.34, 0.88 41.91, 1.02 50.35" stroke="#1e1e1e" stroke-width="2" fill="none"></path></g><g transform="translate(167.0794926096546 1540.3398099230562) rotate(0 0.45716130722536263 25.237177458098245)"><path d="M-8.01 26.81 C-6.11 31.46, -4.08 36.21, 1.02 50.35 M-8.01 26.81 C-5.2 33.78, -2.55 40.89, 1.02 50.35" stroke="#1e1e1e" stroke-width="2" fill="none"></path></g><g transform="translate(167.0794926096546 1540.3398099230562) rotate(0 0.45716130722536263 25.237177458098245)"><path d="M9.24 26.52 C7.6 31.21, 6.1 36.01, 1.02 50.35 M9.24 26.52 C6.94 33.55, 4.49 40.75, 1.02 50.35" stroke="#1e1e1e" stroke-width="2" fill="none"></path></g></g><mask></mask><g stroke-linecap="round" transform="translate(11.666584014892578 1602.8214245750787) rotate(0 157.50001907348633 85)"><path d="M197.5 21.5 C222.76 37.86, 248.58 51.63, 275.5 64.5 M197.5 21.5 C218.95 32.63, 240.97 45.76, 275.5 64.5 M275.5 64.5 C315.98 85.13, 316.5 84.33, 275.5 107.5 M275.5 64.5 C316.62 87.46, 316.77 83.7, 275.5 107.5 M275.5 107.5 C248.96 122.93, 220.24 136.93, 197.5 148.5 M275.5 107.5 C243.93 124.06, 213.81 141.19, 197.5 148.5 M197.5 148.5 C157.68 169.02, 156.75 170.54, 118.5 148.5 M197.5 148.5 C157 170.66, 157.58 169.72, 118.5 148.5 M118.5 148.5 C88.27 132.47, 59.7 116.75, 39.5 107.5 M118.5 148.5 C89.54 133.82, 60.14 119.06, 39.5 107.5 M39.5 107.5 C-1.24 87.04, -1.64 85.94, 39.5 64.5 M39.5 107.5 C-2.02 86.65, 0.75 85.7, 39.5 64.5 M39.5 64.5 C67.4 52.24, 91.23 35.81, 118.5 21.5 M39.5 64.5 C56.16 55.17, 73.78 44.89, 118.5 21.5 M118.5 21.5 C158.33 1.48, 157.35 1.72, 197.5 21.5 M118.5 21.5 C158.61 -1.67, 159.12 0.57, 197.5 21.5" stroke="#2f9e44" stroke-width="2" fill="none"></path></g><g transform="translate(96.63664817810059 1650.3214245750787) rotate(0 72.77994537353516 37.5)"><text x="72.77994537353516" y="0" font-family="Virgil, Segoe UI Emoji" font-size="20px" fill="#2f9e44" text-anchor="middle" style="white-space: pre;" direction="ltr" dominant-baseline="text-before-edge">Does </text><text x="72.77994537353516" y="25" font-family="Virgil, Segoe UI Emoji" font-size="20px" fill="#2f9e44" text-anchor="middle" style="white-space: pre;" direction="ltr" dominant-baseline="text-before-edge">boilerplace.json</text><text x="72.77994537353516" y="50" font-family="Virgil, Segoe UI Emoji" font-size="20px" fill="#2f9e44" text-anchor="middle" style="white-space: pre;" direction="ltr" dominant-baseline="text-before-edge">match Schema?</text></g><g transform="translate(187.91667938232422 1553.6547451927545) rotate(0 16.059982299804688 12.5)"><text x="0" y="0" font-family="Virgil, Segoe UI Emoji" font-size="20px" fill="#1e1e1e" text-anchor="start" style="white-space: pre;" direction="ltr" dominant-baseline="text-before-edge">Yes</text></g><g stroke-linecap="round"><g transform="translate(171.0765748556172 1779.6675677346561) rotate(0 0.4932339025585293 25.186928277435413)"><path d="M0.1 0 C0.22 8.41, 0.61 42.08, 0.73 50.51 M-0.03 -0.13 C0.13 8.23, 0.88 41.88, 1.01 50.29" stroke="#1e1e1e" stroke-width="2" fill="none"></path></g><g transform="translate(171.0765748556172 1779.6675677346561) rotate(0 0.4932339025585293 25.186928277435413)"><path d="M-8.06 26.77 C-5.09 34.25, -1.94 42.14, 1.01 50.29 M-8.06 26.77 C-4.42 35.88, -0.98 45.28, 1.01 50.29" stroke="#1e1e1e" stroke-width="2" fill="none"></path></g><g transform="translate(171.0765748556172 1779.6675677346561) rotate(0 0.4932339025585293 25.186928277435413)"><path d="M9.18 26.44 C6.51 34.05, 4.02 42.05, 1.01 50.29 M9.18 26.44 C6.07 35.66, 2.77 45.19, 1.01 50.29" stroke="#1e1e1e" stroke-width="2" fill="none"></path></g></g><mask></mask><g transform="translate(191.9137616282868 1792.9825030043544) rotate(0 16.059982299804688 12.5)"><text x="0" y="0" font-family="Virgil, Segoe UI Emoji" font-size="20px" fill="#1e1e1e" text-anchor="start" style="white-space: pre;" direction="ltr" dominant-baseline="text-before-edge">Yes</text></g><g transform="translate(348.33324432373047 1419.071386428106) rotate(0 11.979988098144531 12.5)"><text x="0" y="0" font-family="Virgil, Segoe UI Emoji" font-size="20px" fill="#1e1e1e" text-anchor="start" style="white-space: pre;" direction="ltr" dominant-baseline="text-before-edge">No</text></g><g stroke-linecap="round"><g transform="translate(320.8333206176758 1452.8214627220514) rotate(0 49.699178436585896 0.04377677308934835)"><path d="M0.13 0.13 C16.63 0.12, 82.58 -0.03, 99.09 -0.05 M0.02 0.07 C16.56 0.09, 82.87 0.17, 99.37 0.12" stroke="#1e1e1e" stroke-width="2" fill="none"></path></g><g transform="translate(320.8333206176758 1452.8214627220514) rotate(0 49.699178436585896 0.04377677308934835)"><path d="M71.19 10.39 C81.9 6.39, 92.03 2.69, 99.37 0.12 M71.19 10.39 C80.41 6.89, 89.83 3.63, 99.37 0.12" stroke="#1e1e1e" stroke-width="2" fill="none"></path></g><g transform="translate(320.8333206176758 1452.8214627220514) rotate(0 49.699178436585896 0.04377677308934835)"><path d="M71.18 -10.13 C81.89 -6.52, 92.02 -2.6, 99.37 0.12 M71.18 -10.13 C80.42 -6.88, 89.84 -3.38, 99.37 0.12" stroke="#1e1e1e" stroke-width="2" fill="none"></path></g></g><mask></mask><g stroke-linecap="round" transform="translate(425.8333206176758 1397.8214627220514) rotate(0 146.25 52.91667938232422)"><path d="M26.46 0 C119.19 1.74, 211.93 2.44, 266.04 0 M26.46 0 C76.18 -0.69, 124.8 -1.09, 266.04 0 M266.04 0 C281.7 -0.19, 294.42 10.1, 292.5 26.46 M266.04 0 C282.55 -1.57, 292.21 8.32, 292.5 26.46 M292.5 26.46 C292.75 47.8, 291.8 69.55, 292.5 79.38 M292.5 26.46 C292.34 37.85, 292.17 51.07, 292.5 79.38 M292.5 79.38 C291.08 98.01, 283.45 107.51, 266.04 105.83 M292.5 79.38 C290.22 98.7, 283 105.8, 266.04 105.83 M266.04 105.83 C198.81 105.95, 129.83 106.72, 26.46 105.83 M266.04 105.83 C205.87 105.94, 147.3 105.01, 26.46 105.83 M26.46 105.83 C7.86 105.72, -0.29 95.08, 0 79.38 M26.46 105.83 C7.58 105.24, 2.18 96.09, 0 79.38 M0 79.38 C0.52 65.88, 0.68 47, 0 26.46 M0 79.38 C0.07 67.34, -1.15 54.81, 0 26.46 M0 26.46 C0.98 7.25, 9.27 0.13, 26.46 0 M0 26.46 C1.62 7.95, 10.69 -0.12, 26.46 0" stroke="#f08c00" stroke-width="2" fill="none"></path></g><g transform="translate(466.74342346191406 1413.2381421043756) rotate(0 105.33989715576172 37.5)"><text x="105.33989715576172" y="0" font-family="Virgil, Segoe UI Emoji" font-size="20px" fill="#f08c00" text-anchor="middle" style="white-space: pre;" direction="ltr" dominant-baseline="text-before-edge">Show "Couldnt find </text><text x="105.33989715576172" y="25" font-family="Virgil, Segoe UI Emoji" font-size="20px" fill="#f08c00" text-anchor="middle" style="white-space: pre;" direction="ltr" dominant-baseline="text-before-edge">boilerpalce.json. Run </text><text x="105.33989715576172" y="50" font-family="Virgil, Segoe UI Emoji" font-size="20px" fill="#f08c00" text-anchor="middle" style="white-space: pre;" direction="ltr" dominant-baseline="text-before-edge">boilerpalce init first" </text></g><g transform="translate(357.48747954371686 1655.3214245750787) rotate(0 11.979988098144531 12.5)"><text x="0" y="0" font-family="Virgil, Segoe UI Emoji" font-size="20px" fill="#1e1e1e" text-anchor="start" style="white-space: pre;" direction="ltr" dominant-baseline="text-before-edge">No</text></g><g stroke-linecap="round"><g transform="translate(329.98755583766217 1689.071500869024) rotate(0 49.57290212537862 0.07783554522518443)"><path d="M-0.14 0.13 C16.39 0.12, 82.72 0.02, 99.29 -0.01 M0.05 0.07 C16.56 0.08, 82.71 0.16, 99.24 0.17" stroke="#1e1e1e" stroke-width="2" fill="none"></path></g><g transform="translate(329.98755583766217 1689.071500869024) rotate(0 49.57290212537862 0.07783554522518443)"><path d="M71.04 10.41 C82.12 6.75, 92.66 2.78, 99.24 0.17 M71.04 10.41 C78.69 7.71, 86.32 4.95, 99.24 0.17" stroke="#1e1e1e" stroke-width="2" fill="none"></path></g><g transform="translate(329.98755583766217 1689.071500869024) rotate(0 49.57290212537862 0.07783554522518443)"><path d="M71.05 -10.11 C82.14 -5.89, 92.67 -1.98, 99.24 0.17 M71.05 -10.11 C78.72 -7.28, 86.35 -4.51, 99.24 0.17" stroke="#1e1e1e" stroke-width="2" fill="none"></path></g></g><mask></mask><g stroke-linecap="round" transform="translate(434.98755583766217 1634.071500869024) rotate(0 146.24999999999994 55)"><path d="M27.5 0 C75.58 -0.49, 123.43 -0.35, 265 0 M27.5 0 C81.11 -0.32, 133.21 -0.2, 265 0 M265 0 C284.24 1.55, 293.54 9.82, 292.5 27.5 M265 0 C282.9 -0.45, 291.44 8.9, 292.5 27.5 M292.5 27.5 C291.16 44.3, 292.14 64.34, 292.5 82.5 M292.5 27.5 C291.5 44.44, 291.5 64.3, 292.5 82.5 M292.5 82.5 C291.03 99.39, 283.72 110.43, 265 110 M292.5 82.5 C292.55 99.02, 282.74 109.94, 265 110 M265 110 C171.14 109.2, 75.91 109.92, 27.5 110 M265 110 C213.13 108.4, 162.78 108.58, 27.5 110 M27.5 110 C10.04 111.2, -1.69 101.48, 0 82.5 M27.5 110 C10.5 110.88, -1.83 99.19, 0 82.5 M0 82.5 C1.46 65.33, 1.12 46.56, 0 27.5 M0 82.5 C1.39 60.42, -0.55 40.5, 0 27.5 M0 27.5 C-1.76 7.93, 8.27 -0.56, 27.5 0 M0 27.5 C1.26 7.77, 11.02 1.14, 27.5 0" stroke="#f08c00" stroke-width="2" fill="none"></path></g><g transform="translate(454.0176614284825 1639.071500869024) rotate(0 127.21989440917963 50)"><text x="127.21989440917969" y="0" font-family="Virgil, Segoe UI Emoji" font-size="20px" fill="#f08c00" text-anchor="middle" style="white-space: pre;" direction="ltr" dominant-baseline="text-before-edge">Show "Invalid input in </text><text x="127.21989440917969" y="25" font-family="Virgil, Segoe UI Emoji" font-size="20px" fill="#f08c00" text-anchor="middle" style="white-space: pre;" direction="ltr" dominant-baseline="text-before-edge">boilerplace.json. Run </text><text x="127.21989440917969" y="50" font-family="Virgil, Segoe UI Emoji" font-size="20px" fill="#f08c00" text-anchor="middle" style="white-space: pre;" direction="ltr" dominant-baseline="text-before-edge">boilerpalce init and enter </text><text x="127.21989440917969" y="75" font-family="Virgil, Segoe UI Emoji" font-size="20px" fill="#f08c00" text-anchor="middle" style="white-space: pre;" direction="ltr" dominant-baseline="text-before-edge">valid input." </text></g><g stroke-linecap="round" transform="translate(421.6334101359049 1052.5179516863266) rotate(0 115.23808070591525 37.80951145717074)"><path d="M18.9 0 C80.77 0.2, 143.86 -0.56, 211.57 0 M18.9 0 C70.22 -1.71, 121.81 -0.29, 211.57 0 M211.57 0 C225.1 0.92, 231.43 5.79, 230.48 18.9 M211.57 0 C225.63 0.48, 229.36 7.1, 230.48 18.9 M230.48 18.9 C229.89 28.57, 230.98 37.82, 230.48 56.71 M230.48 18.9 C230.05 30.01, 229.48 41.74, 230.48 56.71 M230.48 56.71 C231.13 70.75, 222.82 76.05, 211.57 75.62 M230.48 56.71 C231.56 67.24, 223.24 77.7, 211.57 75.62 M211.57 75.62 C144.21 75, 73.58 78.21, 18.9 75.62 M211.57 75.62 C155.52 75.59, 96.89 74.39, 18.9 75.62 M18.9 75.62 C7.02 74.59, 1.33 69.31, 0 56.71 M18.9 75.62 C7.28 74.64, -1.33 68.38, 0 56.71 M0 56.71 C-1.95 41.22, -0.14 28.14, 0 18.9 M0 56.71 C0.25 48.26, -0.53 39.39, 0 18.9 M0 18.9 C-0.56 5.63, 7.09 0.39, 18.9 0 M0 18.9 C0.02 7.55, 6.38 -0.72, 18.9 0" stroke="#1e1e1e" stroke-width="2" fill="none"></path></g><g transform="translate(449.95155370803104 1077.8274631434974) rotate(0 86.91993713378906 12.5)"><text x="86.91993713378906" y="0" font-family="Virgil, Segoe UI Emoji" font-size="20px" fill="#1e1e1e" text-anchor="middle" style="white-space: pre;" direction="ltr" dominant-baseline="text-before-edge">Wait for command</text></g><g stroke-linecap="round" transform="translate(13.38054057529962 1834.4585543942967) rotate(0 157.50001907348633 85)"><path d="M197.5 21.5 C214.17 31.54, 228.55 41.5, 275.5 64.5 M197.5 21.5 C221.88 34.24, 244.41 47.57, 275.5 64.5 M275.5 64.5 C314.56 85.43, 316.59 86.84, 275.5 107.5 M275.5 64.5 C313.97 86.99, 317.21 87.11, 275.5 107.5 M275.5 107.5 C259.67 115.06, 241.02 124.11, 197.5 148.5 M275.5 107.5 C251.48 119.34, 227.71 131.98, 197.5 148.5 M197.5 148.5 C156.38 168.03, 159.02 169.96, 118.5 148.5 M197.5 148.5 C160.2 169.74, 159.35 170.68, 118.5 148.5 M118.5 148.5 C93.6 136.19, 70.05 122.55, 39.5 107.5 M118.5 148.5 C90.86 134.04, 64.71 119.6, 39.5 107.5 M39.5 107.5 C1.43 86.85, 0.66 85.88, 39.5 64.5 M39.5 107.5 C-0.08 87.2, 1.4 84.28, 39.5 64.5 M39.5 64.5 C64.01 51.94, 92.82 36.04, 118.5 21.5 M39.5 64.5 C57.45 56.45, 73.47 46.57, 118.5 21.5 M118.5 21.5 C156.07 0.04, 158.95 0.31, 197.5 21.5 M118.5 21.5 C160.14 2, 155.93 1.11, 197.5 21.5" stroke="#2f9e44" stroke-width="2" fill="none"></path></g><g transform="translate(101.78059741428888 1881.9585543942967) rotate(0 69.3499526977539 37.5)"><text x="69.3499526977539" y="0" font-family="Virgil, Segoe UI Emoji" font-size="20px" fill="#2f9e44" text-anchor="middle" style="white-space: pre;" direction="ltr" dominant-baseline="text-before-edge">Are the MRCS</text><text x="69.3499526977539" y="25" font-family="Virgil, Segoe UI Emoji" font-size="20px" fill="#2f9e44" text-anchor="middle" style="white-space: pre;" direction="ltr" dominant-baseline="text-before-edge">directories </text><text x="69.3499526977539" y="50" font-family="Virgil, Segoe UI Emoji" font-size="20px" fill="#2f9e44" text-anchor="middle" style="white-space: pre;" direction="ltr" dominant-baseline="text-before-edge">present?</text></g><g stroke-linecap="round"><g transform="translate(172.06899645581984 2011.2877842388555) rotate(0 0.31080513158582335 26.511989576950782)"><path d="M0.13 0 C0.22 8.88, 0.54 44.3, 0.61 53.15 M0.01 -0.13 C0.09 8.72, 0.48 44.02, 0.57 52.92" stroke="#1e1e1e" stroke-width="2" fill="none"></path></g><g transform="translate(172.06899645581984 2011.2877842388555) rotate(0 0.31080513158582335 26.511989576950782)"><path d="M-8.77 28.07 C-5.57 36.96, -2.23 45.48, 0.57 52.92 M-8.77 28.07 C-5.85 35.89, -2.75 43.86, 0.57 52.92" stroke="#1e1e1e" stroke-width="2" fill="none"></path></g><g transform="translate(172.06899645581984 2011.2877842388555) rotate(0 0.31080513158582335 26.511989576950782)"><path d="M9.39 27.88 C6.29 36.86, 3.34 45.45, 0.57 52.92 M9.39 27.88 C6.56 35.78, 3.91 43.81, 0.57 52.92" stroke="#1e1e1e" stroke-width="2" fill="none"></path></g></g><mask></mask><g transform="translate(193.62771818869396 2024.6196328235728) rotate(0 16.059982299804688 12.5)"><text x="0" y="0" font-family="Virgil, Segoe UI Emoji" font-size="20px" fill="#1e1e1e" text-anchor="start" style="white-space: pre;" direction="ltr" dominant-baseline="text-before-edge">Yes</text></g><g transform="translate(360.177973258305 1888.6707007998493) rotate(0 11.979988098144531 12.5)"><text x="0" y="0" font-family="Virgil, Segoe UI Emoji" font-size="20px" fill="#1e1e1e" text-anchor="start" style="white-space: pre;" direction="ltr" dominant-baseline="text-before-edge">No</text></g><g stroke-linecap="round"><g transform="translate(332.6780495522503 1922.4207770937946) rotate(0 49.61531797004295 -0.037164839752676926)"><path d="M-0.05 0.07 C16.48 0.08, 82.74 0.08, 99.28 0.07 M0.2 -0.02 C16.7 -0.06, 82.73 -0.18, 99.22 -0.15" stroke="#1e1e1e" stroke-width="2" fill="none"></path></g><g transform="translate(332.6780495522503 1922.4207770937946) rotate(0 49.61531797004295 -0.037164839752676926)"><path d="M71.03 10.12 C81.74 6.5, 92.31 2.51, 99.22 -0.15 M71.03 10.12 C79.11 7.14, 87.44 4.02, 99.22 -0.15" stroke="#1e1e1e" stroke-width="2" fill="none"></path></g><g transform="translate(332.6780495522503 1922.4207770937946) rotate(0 49.61531797004295 -0.037164839752676926)"><path d="M71.02 -10.4 C81.74 -6.33, 92.31 -2.63, 99.22 -0.15 M71.02 -10.4 C79.1 -7.42, 87.42 -4.56, 99.22 -0.15" stroke="#1e1e1e" stroke-width="2" fill="none"></path></g></g><mask></mask><g stroke-linecap="round" transform="translate(437.6780495522503 1867.4207770937946) rotate(0 146.25 55)"><path d="M27.5 0 C91.97 -1.07, 154.68 -2.05, 265 0 M27.5 0 C91.08 -0.65, 154.76 -0.1, 265 0 M265 0 C284.7 -0.26, 294.44 10.93, 292.5 27.5 M265 0 C282.52 0.98, 291.91 10.56, 292.5 27.5 M292.5 27.5 C294.04 38.31, 294.49 53.5, 292.5 82.5 M292.5 27.5 C292.04 41.9, 292.53 56.69, 292.5 82.5 M292.5 82.5 C293.41 100.18, 284.19 109, 265 110 M292.5 82.5 C290.37 98.86, 282.66 108.21, 265 110 M265 110 C199.64 108.84, 132.56 107.2, 27.5 110 M265 110 C185.36 110.78, 105.47 110.83, 27.5 110 M27.5 110 C8.5 110.59, 0.91 99.61, 0 82.5 M27.5 110 C8.79 110.49, -2.02 100.13, 0 82.5 M0 82.5 C0.01 65.31, -1.21 52.21, 0 27.5 M0 82.5 C-0.38 67.56, 0.49 53.26, 0 27.5 M0 27.5 C0.43 7.95, 10.07 0.25, 27.5 0 M0 27.5 C1.71 8.55, 7.12 0.51, 27.5 0" stroke="#1e1e1e" stroke-width="2" fill="none"></path></g><g transform="translate(466.6481499550823 1897.4207770937946) rotate(0 117.27989959716797 25)"><text x="117.27989959716797" y="0" font-family="Virgil, Segoe UI Emoji" font-size="20px" fill="#1e1e1e" text-anchor="middle" style="white-space: pre;" direction="ltr" dominant-baseline="text-before-edge">Create directories and </text><text x="117.27989959716797" y="25" font-family="Virgil, Segoe UI Emoji" font-size="20px" fill="#1e1e1e" text-anchor="middle" style="white-space: pre;" direction="ltr" dominant-baseline="text-before-edge">required files.</text></g><g stroke-linecap="round"><g transform="translate(686.8397450522773 946.4279097736966) rotate(0 39.27585110900452 -0.1563781721893065)"><path d="M-0.07 -0.09 C12.97 -0.11, 65.25 -0.25, 78.36 -0.27 M0.15 0.19 C13.24 0.12, 65.56 -0.4, 78.63 -0.5" stroke="#1971c2" stroke-width="2" fill="none"></path></g><g transform="translate(686.8397450522773 946.4279097736966) rotate(0 39.27585110900452 -0.1563781721893065)"><path d="M50.53 10.01 C60.26 6.08, 70.4 2.84, 78.63 -0.5 M50.53 10.01 C60.99 6.22, 71.25 2.17, 78.63 -0.5" stroke="#1971c2" stroke-width="2" fill="none"></path></g><g transform="translate(686.8397450522773 946.4279097736966) rotate(0 39.27585110900452 -0.1563781721893065)"><path d="M50.34 -10.51 C60.11 -7.22, 70.32 -3.24, 78.63 -0.5 M50.34 -10.51 C60.89 -6.7, 71.22 -3.14, 78.63 -0.5" stroke="#1971c2" stroke-width="2" fill="none"></path></g></g><mask></mask><g transform="translate(691.3566193353558 906.5479234967889) rotate(0 25.179977416992188 12.5)"><text x="0" y="0" font-family="Virgil, Segoe UI Emoji" font-size="20px" fill="#1971c2" text-anchor="start" style="white-space: pre;" direction="ltr" dominant-baseline="text-before-edge">Error</text></g><g stroke-linecap="round" transform="translate(772.8169837830551 886.2251735868873) rotate(0 122.22222222222217 54.44444444444446)"><path d="M27.22 0 C67.32 1.28, 102.5 0.81, 217.22 0 M27.22 0 C69.49 -0.29, 109.93 1.4, 217.22 0 M217.22 0 C235.03 0.35, 243.21 9.78, 244.44 27.22 M217.22 0 C237.38 0.06, 242.42 11.16, 244.44 27.22 M244.44 27.22 C245.04 37.72, 244.5 52.45, 244.44 81.67 M244.44 27.22 C245.79 47.73, 244.37 68.56, 244.44 81.67 M244.44 81.67 C244.63 99.13, 235.8 107.1, 217.22 108.89 M244.44 81.67 C246.32 100.28, 237.08 107.56, 217.22 108.89 M217.22 108.89 C158.02 105.65, 96.98 105.43, 27.22 108.89 M217.22 108.89 C174.49 111.12, 132.09 110.95, 27.22 108.89 M27.22 108.89 C9.95 108.75, -1.31 100.6, 0 81.67 M27.22 108.89 C9.44 108.97, -1.22 99.55, 0 81.67 M0 81.67 C-1.03 70.34, 0.01 56.43, 0 27.22 M0 81.67 C0.6 70.96, 0.31 58.79, 0 27.22 M0 27.22 C-1.1 9.24, 10.29 -1.06, 27.22 0 M0 27.22 C-0.24 8.04, 9.9 1.55, 27.22 0" stroke="#f08c00" stroke-width="2" fill="none"></path></g><g transform="translate(788.9292969476601 915.6696180313317) rotate(0 106.10990905761719 25)"><text x="106.10990905761719" y="0" font-family="Virgil, Segoe UI Emoji" font-size="20px" fill="#f08c00" text-anchor="middle" style="white-space: pre;" direction="ltr" dominant-baseline="text-before-edge">Something went wrong.</text><text x="106.10990905761719" y="25" font-family="Virgil, Segoe UI Emoji" font-size="20px" fill="#f08c00" text-anchor="middle" style="white-space: pre;" direction="ltr" dominant-baseline="text-before-edge">Try Again.</text></g><g stroke-linecap="round" transform="translate(448.26630958678174 2069.391885666616) rotate(0 122.22222222222229 54.44444444444434)"><path d="M27.22 0 C69.26 1.79, 113.27 1.75, 217.22 0 M27.22 0 C70.13 -1.52, 112.56 -0.37, 217.22 0 M217.22 0 C233.44 1.01, 244.88 10.86, 244.44 27.22 M217.22 0 C237.52 1.22, 243.97 11.06, 244.44 27.22 M244.44 27.22 C242.4 44.99, 244.57 63.68, 244.44 81.67 M244.44 27.22 C244.48 44.64, 243.44 60.99, 244.44 81.67 M244.44 81.67 C244.23 98.39, 237.19 110.62, 217.22 108.89 M244.44 81.67 C245.19 98.24, 236.44 107.37, 217.22 108.89 M217.22 108.89 C161.2 112.3, 103.15 109.49, 27.22 108.89 M217.22 108.89 C169.01 111.2, 122.04 110.2, 27.22 108.89 M27.22 108.89 C9.12 108.51, 0.2 101.36, 0 81.67 M27.22 108.89 C7.11 107.81, 2.23 101.54, 0 81.67 M0 81.67 C-1.07 66.39, -1.82 48.19, 0 27.22 M0 81.67 C0.74 68.62, 0.38 56.56, 0 27.22 M0 27.22 C0.18 8.79, 9.23 -1.74, 27.22 0 M0 27.22 C-0.28 7.52, 8.12 1.77, 27.22 0" stroke="#f08c00" stroke-width="2" fill="none"></path></g><g transform="translate(464.37862275138673 2098.8363301110603) rotate(0 106.10990905761719 25)"><text x="106.10990905761719" y="0" font-family="Virgil, Segoe UI Emoji" font-size="20px" fill="#f08c00" text-anchor="middle" style="white-space: pre;" direction="ltr" dominant-baseline="text-before-edge">Something went wrong.</text><text x="106.10990905761719" y="25" font-family="Virgil, Segoe UI Emoji" font-size="20px" fill="#f08c00" text-anchor="middle" style="white-space: pre;" direction="ltr" dominant-baseline="text-before-edge">Try Again.</text></g><g stroke-linecap="round"><g transform="translate(573.1961683845689 1992.2228644657348) rotate(0 2.0929440052104837 32.11272956242681)"><path d="M0.15 -0.07 C0.8 10.64, 3.2 53.59, 3.85 64.3 M0.05 0.23 C0.74 10.88, 3.48 53.36, 4.14 64.05" stroke="#1971c2" stroke-width="2" fill="none"></path></g><g transform="translate(573.1961683845689 1992.2228644657348) rotate(0 2.0929440052104837 32.11272956242681)"><path d="M-7.88 36.56 C-4.41 44.58, -0.57 53.21, 4.14 64.05 M-7.88 36.56 C-4.75 44, -1.3 51.42, 4.14 64.05" stroke="#1971c2" stroke-width="2" fill="none"></path></g><g transform="translate(573.1961683845689 1992.2228644657348) rotate(0 2.0929440052104837 32.11272956242681)"><path d="M12.6 35.27 C9.94 43.7, 7.63 52.72, 4.14 64.05 M12.6 35.27 C10.22 43.03, 8.17 50.8, 4.14 64.05" stroke="#1971c2" stroke-width="2" fill="none"></path></g></g><mask></mask><g transform="translate(504.6198057092465 2008.3158352813466) rotate(0 25.179977416992188 12.5)"><text x="0" y="0" font-family="Virgil, Segoe UI Emoji" font-size="20px" fill="#1971c2" text-anchor="start" style="white-space: pre;" direction="ltr" dominant-baseline="text-before-edge">Error</text></g><g stroke-linecap="round"><g transform="translate(621.9988141932076 1139.1959725031738) rotate(0 588.8632389802817 54.316380748425104)"><path d="M0.08 1.03 C19.7 7.2, -47.9 30.81, 118.44 37.46 C284.78 44.11, 821.33 29.15, 998.1 40.92 C1174.87 52.7, 1148.73 97.07, 1179.06 108.11 M-1.33 0.52 C18.57 6.79, -45.89 32.2, 120.57 38.64 C287.02 45.08, 821 27.94, 997.39 39.15 C1173.79 50.37, 1148.72 94.55, 1178.95 105.94" stroke="#1e1e1e" stroke-width="2" fill="none"></path></g><g transform="translate(621.9988141932076 1139.1959725031738) rotate(0 588.8632389802817 54.316380748425104)"><path d="M1151.15 94.68 C1162.96 96.88, 1170.18 102.99, 1178.95 105.94 M1151.15 94.68 C1162.24 98.74, 1173.55 103.66, 1178.95 105.94" stroke="#1e1e1e" stroke-width="2" fill="none"></path></g><g transform="translate(621.9988141932076 1139.1959725031738) rotate(0 588.8632389802817 54.316380748425104)"><path d="M1164.89 79.44 C1171.79 87.16, 1174.03 98.79, 1178.95 105.94 M1164.89 79.44 C1170.53 89.54, 1176.46 100.42, 1178.95 105.94" stroke="#1e1e1e" stroke-width="2" fill="none"></path></g></g><mask></mask><g stroke-linecap="round" transform="translate(1696.9196306258905 1262.084812224854) rotate(0 105.92593722873266 40.37038167317701)"><path d="M20.19 0 C65.85 -1.16, 107.16 0.13, 191.67 0 M20.19 0 C73.51 -1.25, 126.59 -2.43, 191.67 0 M191.67 0 C203.81 1.87, 213.52 5.21, 211.85 20.19 M191.67 0 C206.83 1.01, 213.41 8.95, 211.85 20.19 M211.85 20.19 C211.93 28.1, 210.36 35.13, 211.85 60.56 M211.85 20.19 C211.97 28.36, 211.04 36.05, 211.85 60.56 M211.85 60.56 C211.81 74.13, 205.67 80.88, 191.67 80.74 M211.85 60.56 C211.6 73.76, 206.87 80.97, 191.67 80.74 M191.67 80.74 C139.83 80.35, 92.78 80.46, 20.19 80.74 M191.67 80.74 C138.68 79.01, 86.02 79.05, 20.19 80.74 M20.19 80.74 C8.59 82.35, -1.2 73.4, 0 60.56 M20.19 80.74 C5.19 79.74, -0.6 76.02, 0 60.56 M0 60.56 C1.07 48.21, 0.23 34.11, 0 20.19 M0 60.56 C-0.88 49.86, 0.26 39.59, 0 20.19 M0 20.19 C-0.74 6.55, 4.92 -1.55, 20.19 0 M0 20.19 C2.27 8.72, 4.82 -0.3, 20.19 0" stroke="#c2255c" stroke-width="2" fill="none"></path></g><g transform="translate(1716.925645979623 1289.955193898031) rotate(0 85.919921875 12.5)"><text x="85.919921875" y="0" font-family="Virgil, Segoe UI Emoji" font-size="20px" fill="#c2255c" text-anchor="middle" style="white-space: pre;" direction="ltr" dominant-baseline="text-before-edge">Boilerplace Reset</text></g><g stroke-linecap="round" transform="translate(1700.5597314985962 1401.1537354484396) rotate(0 110 39.999999999999886)"><path d="M20 0 C80.48 -1.88, 139.42 -1.83, 200 0 M20 0 C58.76 0.83, 99.25 0.08, 200 0 M200 0 C211.79 0.28, 221.95 5.23, 220 20 M200 0 C213.34 0.7, 220.27 4.44, 220 20 M220 20 C218.29 30.77, 218.24 43.78, 220 60 M220 20 C220.62 31.61, 220.31 42.26, 220 60 M220 60 C219.88 74.71, 212.71 78.11, 200 80 M220 60 C219.59 73.08, 214.43 79.17, 200 80 M200 80 C145.4 78.94, 92.95 78.88, 20 80 M200 80 C156.97 78.55, 111.81 80.05, 20 80 M20 80 C5.92 81.87, -0.96 75.09, 0 60 M20 80 C5.45 80.69, -0.62 75.57, 0 60 M0 60 C0.35 52.56, -0.74 43.58, 0 20 M0 60 C0.82 47.24, -0.55 34.17, 0 20 M0 20 C-1.83 7.08, 7.67 -1.62, 20 0 M0 20 C1.86 6.59, 4.72 -1.43, 20 0" stroke="#1e1e1e" stroke-width="2" fill="none"></path></g><g transform="translate(1713.6098032149048 1428.6537354484394) rotate(0 96.9499282836914 12.5)"><text x="96.9499282836914" y="0" font-family="Virgil, Segoe UI Emoji" font-size="20px" fill="#1e1e1e" text-anchor="middle" style="white-space: pre;" direction="ltr" dominant-baseline="text-before-edge">Delete current URI</text></g><g stroke-linecap="round"><g transform="translate(1799.0629699968786 1351.1536845858095) rotate(0 0.6067106618163507 18.87015621853243)"><path d="M0 0.02 C0.22 6.34, 1.17 31.53, 1.39 37.84 M-0.18 -0.09 C0.03 6.19, 1.09 31.32, 1.34 37.6" stroke="#1e1e1e" stroke-width="2" fill="none"></path></g><g transform="translate(1799.0629699968786 1351.1536845858095) rotate(0 0.6067106618163507 18.87015621853243)"><path d="M-5.84 20.12 C-3.41 26.2, -0.94 31.96, 1.34 37.6 M-5.84 20.12 C-3.32 26.09, -0.78 32.24, 1.34 37.6" stroke="#1e1e1e" stroke-width="2" fill="none"></path></g><g transform="translate(1799.0629699968786 1351.1536845858095) rotate(0 0.6067106618163507 18.87015621853243)"><path d="M7.08 19.6 C5.18 25.85, 3.32 31.79, 1.34 37.6 M7.08 19.6 C5.14 25.75, 3.22 32.08, 1.34 37.6" stroke="#1e1e1e" stroke-width="2" fill="none"></path></g></g><mask></mask><g stroke-linecap="round"><g transform="translate(1931.6709782433877 1442.2647787427106) rotate(0 -616.8558487690385 -348.9834227119281)"><path d="M-0.24 0.57 C5.26 -11.39, 55.88 36.12, 33.01 -71.58 C10.14 -179.29, 80.13 -544.7, -137.45 -645.68 C-355.03 -746.65, -1083.53 -672.16, -1272.48 -677.42 M-1.83 -0.18 C3.5 -12.46, 54.7 34.23, 32 -73.14 C9.31 -180.5, 79.46 -543.27, -137.98 -644.37 C-355.42 -745.46, -1083.55 -674.34, -1272.62 -679.69" stroke="#1e1e1e" stroke-width="2" fill="none"></path></g><g transform="translate(1931.6709782433877 1442.2647787427106) rotate(0 -616.8558487690385 -348.9834227119281)"><path d="M-1244.77 -690.84 C-1252.19 -687.71, -1259.71 -683.45, -1272.62 -679.69 M-1244.77 -690.84 C-1252.69 -686.79, -1261.12 -683.22, -1272.62 -679.69" stroke="#1e1e1e" stroke-width="2" fill="none"></path></g><g transform="translate(1931.6709782433877 1442.2647787427106) rotate(0 -616.8558487690385 -348.9834227119281)"><path d="M-1244.12 -670.33 C-1251.76 -673.38, -1259.48 -675.29, -1272.62 -679.69 M-1244.12 -670.33 C-1252.11 -672.41, -1260.74 -674.98, -1272.62 -679.69" stroke="#1e1e1e" stroke-width="2" fill="none"></path></g></g><mask></mask><g stroke-linecap="round" transform="translate(28.1155430627241 2077.1537456209658) rotate(0 148.00001525878906 51.000030517578125)"><path d="M25.5 0 C91.51 1.12, 155.68 1.44, 270.5 0 M25.5 0 C108.3 0.15, 191.68 -0.6, 270.5 0 M270.5 0 C287.48 -1.03, 294.03 9.42, 296 25.5 M270.5 0 C288.07 -1.36, 294.33 10.48, 296 25.5 M296 25.5 C294.15 35.63, 297.04 49.05, 296 76.5 M296 25.5 C297.35 39.21, 296.58 51.71, 296 76.5 M296 76.5 C296.38 92.72, 288.65 103.54, 270.5 102 M296 76.5 C295.78 92.77, 286.8 100.63, 270.5 102 M270.5 102 C210.4 103.92, 150.54 102.77, 25.5 102 M270.5 102 C191.97 100.7, 115.37 100.65, 25.5 102 M25.5 102 C7.15 102, -0.22 94.78, 0 76.5 M25.5 102 C6.74 100.15, -0.96 95.72, 0 76.5 M0 76.5 C-0.43 59.19, -1.12 39.27, 0 25.5 M0 76.5 C0.73 64.78, -0.7 51.46, 0 25.5 M0 25.5 C-0.38 7.71, 7.38 1.54, 25.5 0 M0 25.5 C0.87 9.2, 7.01 1.08, 25.5 0" stroke="#f08c00" stroke-width="2" fill="none"></path></g><g transform="translate(43.33568161252879 2090.653776138544) rotate(0 132.77987670898438 37.5)"><text x="132.77987670898438" y="0" font-family="Virgil, Segoe UI Emoji" font-size="20px" fill="#f08c00" text-anchor="middle" style="white-space: pre;" direction="ltr" dominant-baseline="text-before-edge">Show "Directories present, </text><text x="132.77987670898438" y="25" font-family="Virgil, Segoe UI Emoji" font-size="20px" fill="#f08c00" text-anchor="middle" style="white-space: pre;" direction="ltr" dominant-baseline="text-before-edge">run boilerpalce update </text><text x="132.77987670898438" y="50" font-family="Virgil, Segoe UI Emoji" font-size="20px" fill="#f08c00" text-anchor="middle" style="white-space: pre;" direction="ltr" dominant-baseline="text-before-edge">instead"</text></g><g stroke-linecap="round" transform="translate(904.4395447988352 1273.732290709913) rotate(0 105.92593722873255 40.37038167317712)"><path d="M20.19 0 C70.51 -1.05, 118 -0.9, 191.67 0 M20.19 0 C78.74 0.1, 137.66 1.68, 191.67 0 M191.67 0 C203.56 -0.22, 210.41 8.33, 211.85 20.19 M191.67 0 C204.58 -1.68, 212.51 8.29, 211.85 20.19 M211.85 20.19 C213.41 28.15, 213.18 37.41, 211.85 60.56 M211.85 20.19 C211.8 35.84, 211.14 49.86, 211.85 60.56 M211.85 60.56 C213.12 72.74, 203.42 81.67, 191.67 80.74 M211.85 60.56 C212.58 73.43, 205.04 81.16, 191.67 80.74 M191.67 80.74 C141.5 82.16, 95.87 80.74, 20.19 80.74 M191.67 80.74 C137.9 82.29, 85.42 80.86, 20.19 80.74 M20.19 80.74 C7.4 80.54, 0.67 75.69, 0 60.56 M20.19 80.74 C7.09 82.84, -1 75.02, 0 60.56 M0 60.56 C1.45 46.56, 1.66 34.72, 0 20.19 M0 60.56 C0.8 47.41, 0.18 35.67, 0 20.19 M0 20.19 C-1.48 5.01, 6.15 0.12, 20.19 0 M0 20.19 C0.03 6.64, 8.04 -1.56, 20.19 0" stroke="#c2255c" stroke-width="2" fill="none"></path></g><g transform="translate(917.6955601525679 1301.60267238309) rotate(0 92.669921875 12.5)"><text x="92.669921875" y="0" font-family="Virgil, Segoe UI Emoji" font-size="20px" fill="#c2255c" text-anchor="middle" style="white-space: pre;" direction="ltr" dominant-baseline="text-before-edge">Boilerplace Update</text></g><g stroke-linecap="round"><g transform="translate(586.4722587271688 1138.6846345116678) rotate(0 230.12449824987584 61.25355186726745)"><path d="M1 1.03 C9.5 10.79, -16.34 46.77, 51.69 58.79 C119.72 70.81, 341.1 62.75, 409.18 73.15 C477.26 83.56, 451.79 113.08, 460.19 121.23 M0.06 0.53 C8.9 9.92, -14.09 44.71, 54.05 57.06 C122.19 69.4, 341.66 63.79, 408.87 74.61 C476.08 85.43, 449.07 114, 457.32 121.98" stroke="#1e1e1e" stroke-width="2" fill="none"></path></g><g transform="translate(586.4722587271688 1138.6846345116678) rotate(0 230.12449824987584 61.25355186726745)"><path d="M443.79 95.21 C450.38 103.51, 454.71 115.61, 457.32 121.98 M443.79 95.21 C448.76 104.04, 452.32 112.72, 457.32 121.98" stroke="#1e1e1e" stroke-width="2" fill="none"></path></g><g transform="translate(586.4722587271688 1138.6846345116678) rotate(0 230.12449824987584 61.25355186726745)"><path d="M464.16 92.77 C463.51 102.11, 460.58 115.08, 457.32 121.98 M464.16 92.77 C462.59 102.27, 459.58 111.74, 457.32 121.98" stroke="#1e1e1e" stroke-width="2" fill="none"></path></g></g><mask></mask><g stroke-linecap="round"><g transform="translate(1027.4025710107817 1369.0078437915765) rotate(0 0.24036873749525967 14.55941733777263)"><path d="M0.02 -0.03 C0.14 4.8, 0.56 24.29, 0.63 29.14 M-0.15 -0.17 C-0.03 4.74, 0.41 24.4, 0.56 29.29" stroke="#1e1e1e" stroke-width="2" fill="none"></path></g><g transform="translate(1027.4025710107817 1369.0078437915765) rotate(0 0.24036873749525967 14.55941733777263)"><path d="M-4.79 15.7 C-3.61 18.87, -2.47 21.65, 0.56 29.29 M-4.79 15.7 C-3.73 18.47, -2.65 21.31, 0.56 29.29" stroke="#1e1e1e" stroke-width="2" fill="none"></path></g><g transform="translate(1027.4025710107817 1369.0078437915765) rotate(0 0.24036873749525967 14.55941733777263)"><path d="M5.2 15.44 C4.14 18.67, 3.04 21.51, 0.56 29.29 M5.2 15.44 C4.19 18.27, 3.2 21.16, 0.56 29.29" stroke="#1e1e1e" stroke-width="2" fill="none"></path></g></g><mask></mask><g stroke-linecap="round" transform="translate(869.5700909395068 1402.4654564277796) rotate(0 157.50001907348633 85)"><path d="M197.5 21.5 C220.9 33.21, 244.41 46.06, 275.5 64.5 M197.5 21.5 C218.85 33.79, 240.87 45.45, 275.5 64.5 M275.5 64.5 C316.71 85.23, 315.43 87.24, 275.5 107.5 M275.5 64.5 C314.35 86.1, 316.87 84.15, 275.5 107.5 M275.5 107.5 C245.81 121.39, 217.76 136.69, 197.5 148.5 M275.5 107.5 C259.89 116.93, 243.03 125.02, 197.5 148.5 M197.5 148.5 C159.31 168.53, 157.01 171.32, 118.5 148.5 M197.5 148.5 C159.34 169.59, 157.71 170.79, 118.5 148.5 M118.5 148.5 C95.07 134.26, 66.73 121.47, 39.5 107.5 M118.5 148.5 C100.75 139.62, 81.81 128.79, 39.5 107.5 M39.5 107.5 C0.48 85.36, -1.38 87.88, 39.5 64.5 M39.5 107.5 C-2.11 84.18, -0.49 86.27, 39.5 64.5 M39.5 64.5 C69.21 50.83, 97.26 33.21, 118.5 21.5 M39.5 64.5 C59.36 53.36, 80.08 42.65, 118.5 21.5 M118.5 21.5 C158.72 1.06, 158.27 1.62, 197.5 21.5 M118.5 21.5 C156.57 -0.46, 156.35 -0.05, 197.5 21.5" stroke="#2f9e44" stroke-width="2" fill="none"></path></g><g transform="translate(957.9701477784961 1449.9654564277796) rotate(0 69.3499526977539 37.5)"><text x="69.3499526977539" y="0" font-family="Virgil, Segoe UI Emoji" font-size="20px" fill="#2f9e44" text-anchor="middle" style="white-space: pre;" direction="ltr" dominant-baseline="text-before-edge">Are the MRCS</text><text x="69.3499526977539" y="25" font-family="Virgil, Segoe UI Emoji" font-size="20px" fill="#2f9e44" text-anchor="middle" style="white-space: pre;" direction="ltr" dominant-baseline="text-before-edge">directories </text><text x="69.3499526977539" y="50" font-family="Virgil, Segoe UI Emoji" font-size="20px" fill="#2f9e44" text-anchor="middle" style="white-space: pre;" direction="ltr" dominant-baseline="text-before-edge">present?</text></g><g transform="translate(1216.3675236225122 1456.6776028333322) rotate(0 11.979988098144531 12.5)"><text x="0" y="0" font-family="Virgil, Segoe UI Emoji" font-size="20px" fill="#1e1e1e" text-anchor="start" style="white-space: pre;" direction="ltr" dominant-baseline="text-before-edge">No</text></g><g stroke-linecap="round"><g transform="translate(1188.8675999164575 1490.4276791272775) rotate(0 49.665315579381286 -0.025251984383316994)"><path d="M-0.04 -0.05 C16.5 -0.05, 82.56 -0.01, 99.08 -0.02 M0.21 -0.21 C16.81 -0.18, 82.84 0.12, 99.37 0.16" stroke="#1e1e1e" stroke-width="2" fill="none"></path></g><g transform="translate(1188.8675999164575 1490.4276791272775) rotate(0 49.665315579381286 -0.025251984383316994)"><path d="M71.14 10.32 C76.82 8.08, 82.67 5.99, 99.37 0.16 M71.14 10.32 C77.86 8.01, 84.5 5.51, 99.37 0.16" stroke="#1e1e1e" stroke-width="2" fill="none"></path></g><g transform="translate(1188.8675999164575 1490.4276791272775) rotate(0 49.665315579381286 -0.025251984383316994)"><path d="M71.21 -10.2 C76.88 -8.24, 82.71 -6.12, 99.37 0.16 M71.21 -10.2 C77.94 -7.64, 84.56 -5.26, 99.37 0.16" stroke="#1e1e1e" stroke-width="2" fill="none"></path></g></g><mask></mask><g stroke-linecap="round" transform="translate(1293.8675999164575 1435.4276791272775) rotate(0 146.25 55)"><path d="M27.5 0 C92.56 0.15, 157.03 2.57, 265 0 M27.5 0 C89.4 -1.2, 152.46 -1.91, 265 0 M265 0 C284.65 0.16, 291.69 7.99, 292.5 27.5 M265 0 C282.41 -0.79, 291.92 7.01, 292.5 27.5 M292.5 27.5 C293.73 46.79, 293 69.62, 292.5 82.5 M292.5 27.5 C292.81 39.78, 292.1 52.76, 292.5 82.5 M292.5 82.5 C292.94 100.5, 282.91 111.93, 265 110 M292.5 82.5 C291.49 99.7, 282.79 108.51, 265 110 M265 110 C209.15 111.45, 150.78 111.53, 27.5 110 M265 110 C200.57 111.21, 137.5 111.97, 27.5 110 M27.5 110 C10.5 109.36, -1.09 101.44, 0 82.5 M27.5 110 C11.08 109.64, -0.22 99.95, 0 82.5 M0 82.5 C-0.37 61.42, 0.69 42.79, 0 27.5 M0 82.5 C-0.7 62.88, -0.79 43.63, 0 27.5 M0 27.5 C-1.58 8.22, 7.51 -1.24, 27.5 0 M0 27.5 C-1.66 7.45, 9.69 1.55, 27.5 0" stroke="#f08c00" stroke-width="2" fill="none"></path></g><g transform="translate(1321.5677113056176 1465.4276791272775) rotate(0 118.54988861083984 25)"><text x="118.54988861083984" y="0" font-family="Virgil, Segoe UI Emoji" font-size="20px" fill="#f08c00" text-anchor="middle" style="white-space: pre;" direction="ltr" dominant-baseline="text-before-edge">No file to update, run </text><text x="118.54988861083984" y="25" font-family="Virgil, Segoe UI Emoji" font-size="20px" fill="#f08c00" text-anchor="middle" style="white-space: pre;" direction="ltr" dominant-baseline="text-before-edge">Boilerplace Create first</text></g><g stroke-linecap="round"><g transform="translate(1024.6548024064896 1576.739971997814) rotate(0 0.46409253879028256 26.9919018101823)"><path d="M-0.11 -0.05 C0.05 8.93, 0.88 45, 1.04 54.04 M0.1 -0.21 C0.25 8.85, 0.9 45.17, 1 54.19" stroke="#1e1e1e" stroke-width="2" fill="none"></path></g><g transform="translate(1024.6548024064896 1576.739971997814) rotate(0 0.46409253879028256 26.9919018101823)"><path d="M-8.64 28.91 C-5.51 37.6, -2.33 45.6, 1 54.19 M-8.64 28.91 C-5.03 38.16, -1.79 47.27, 1 54.19" stroke="#1e1e1e" stroke-width="2" fill="none"></path></g><g transform="translate(1024.6548024064896 1576.739971997814) rotate(0 0.46409253879028256 26.9919018101823)"><path d="M9.87 28.63 C6.86 37.39, 3.89 45.49, 1 54.19 M9.87 28.63 C6.78 37.97, 3.31 47.18, 1 54.19" stroke="#1e1e1e" stroke-width="2" fill="none"></path></g></g><mask></mask><g transform="translate(1045.6058589983777 1589.7438743556822) rotate(0 16.059982299804688 12.5)"><text x="0" y="0" font-family="Virgil, Segoe UI Emoji" font-size="20px" fill="#1e1e1e" text-anchor="start" style="white-space: pre;" direction="ltr" dominant-baseline="text-before-edge">Yes</text></g><g stroke-linecap="round" transform="translate(891.0601047334214 1644.590709989029) rotate(0 136.33331298828125 46.666656494140625)"><path d="M23.33 0 C88.22 -0.39, 153.43 -1.37, 249.33 0 M23.33 0 C96.76 0.13, 168.76 0.26, 249.33 0 M249.33 0 C265.68 -1.71, 273.02 9.04, 272.67 23.33 M249.33 0 C265.21 -2.02, 274.64 5.58, 272.67 23.33 M272.67 23.33 C270.49 33.75, 273.38 44.33, 272.67 70 M272.67 23.33 C272.16 37.73, 272.8 52.73, 272.67 70 M272.67 70 C274.64 85.5, 263.76 93.06, 249.33 93.33 M272.67 70 C273.63 83.74, 266.29 91.75, 249.33 93.33 M249.33 93.33 C180.08 92.97, 108.27 93.75, 23.33 93.33 M249.33 93.33 C176.33 91.26, 104.53 90.9, 23.33 93.33 M23.33 93.33 C7.33 92.08, -1.76 86.18, 0 70 M23.33 93.33 C5.9 94.08, 1.13 86.25, 0 70 M0 70 C1.15 57.92, -0.87 47.33, 0 23.33 M0 70 C-0.14 55.84, -1.25 41.28, 0 23.33 M0 23.33 C-1.46 6.02, 9.22 -1.81, 23.33 0 M0 23.33 C-1.18 7.4, 9.45 -1.05, 23.33 0" stroke="#1e1e1e" stroke-width="2" fill="none"></path></g><g transform="translate(899.0735324677964 1666.2573664831696) rotate(0 128.31988525390625 25)"><text x="128.31988525390625" y="0" font-family="Virgil, Segoe UI Emoji" font-size="20px" fill="#1e1e1e" text-anchor="middle" style="white-space: pre;" direction="ltr" dominant-baseline="text-before-edge">Check for files and </text><text x="128.31988525390625" y="25" font-family="Virgil, Segoe UI Emoji" font-size="20px" fill="#1e1e1e" text-anchor="middle" style="white-space: pre;" direction="ltr" dominant-baseline="text-before-edge">functions already present,</text></g><g stroke-linecap="round"><g transform="translate(988.3934177217027 1744.590725247818) rotate(0 -85.98644985726094 58.366674553965254)"><path d="M0.76 -0.54 C-1.72 7.25, 12 36.63, -14.86 45.82 C-41.72 55.01, -134.93 42.9, -160.39 54.6 C-185.85 66.31, -166.28 105.87, -167.61 116.05 M-0.3 1.8 C-2.91 9.82, 11.26 38.59, -15.56 47.07 C-42.38 55.54, -135.93 40.94, -161.23 52.64 C-186.53 64.34, -166.49 106.72, -167.38 117.27" stroke="#1e1e1e" stroke-width="2" fill="none"></path></g><g transform="translate(988.3934177217027 1744.590725247818) rotate(0 -85.98644985726094 58.366674553965254)"><path d="M-182.64 91.44 C-179.12 99.95, -174.52 106.73, -167.38 117.27 M-182.64 91.44 C-177.78 100.57, -172.63 110.29, -167.38 117.27" stroke="#1e1e1e" stroke-width="2" fill="none"></path></g><g transform="translate(988.3934177217027 1744.590725247818) rotate(0 -85.98644985726094 58.366674553965254)"><path d="M-162.47 87.67 C-165.08 97.45, -166.58 105.37, -167.38 117.27 M-162.47 87.67 C-164.88 98.2, -167 109.28, -167.38 117.27" stroke="#1e1e1e" stroke-width="2" fill="none"></path></g></g><mask></mask><g stroke-linecap="round"><g transform="translate(1048.5569809362914 1749.4998397386737) rotate(0 92.04787562259469 59.686005862932575)"><path d="M0.48 0.89 C3.18 8.95, -10.65 37.86, 17.16 47.5 C44.97 57.14, 139.34 46.98, 167.36 58.73 C195.37 70.47, 182.31 108.24, 185.26 117.98 M-0.73 0.3 C1.76 8.06, -11.38 36.08, 16.45 45.5 C44.28 54.92, 138.14 44.54, 166.26 56.8 C194.38 69.06, 181.76 109.02, 185.18 119.07" stroke="#1e1e1e" stroke-width="2" fill="none"></path></g><g transform="translate(1048.5569809362914 1749.4998397386737) rotate(0 92.04787562259469 59.686005862932575)"><path d="M174.41 91.07 C179.77 102.42, 182.78 111.27, 185.18 119.07 M174.41 91.07 C177.53 100.58, 182.13 111.93, 185.18 119.07" stroke="#1e1e1e" stroke-width="2" fill="none"></path></g><g transform="translate(1048.5569809362914 1749.4998397386737) rotate(0 92.04787562259469 59.686005862932575)"><path d="M194.93 90.69 C192.48 102.27, 187.68 111.26, 185.18 119.07 M194.93 90.69 C190.54 100.34, 187.63 111.83, 185.18 119.07" stroke="#1e1e1e" stroke-width="2" fill="none"></path></g></g><mask></mask><g stroke-linecap="round" transform="translate(783.7267307099839 1868.590709989029) rotate(0 105.33334350585938 49)"><path d="M24.5 0 C74.99 -0.04, 128.07 0.01, 186.17 0 M24.5 0 C88.4 0.74, 152.1 1.77, 186.17 0 M186.17 0 C201.84 -1.04, 212.33 10.02, 210.67 24.5 M186.17 0 C202.93 1.83, 209.24 6.94, 210.67 24.5 M210.67 24.5 C210.82 36.06, 211.24 49.39, 210.67 73.5 M210.67 24.5 C211.08 44.14, 210.02 63.34, 210.67 73.5 M210.67 73.5 C209.94 90.73, 200.97 96.09, 186.17 98 M210.67 73.5 C212.51 90.17, 203.47 95.71, 186.17 98 M186.17 98 C139.61 97.18, 96.69 97.8, 24.5 98 M186.17 98 C122.57 98.53, 58.96 96.66, 24.5 98 M24.5 98 C6.75 99.49, 0.98 89.18, 0 73.5 M24.5 98 C7.69 99.38, 1.01 90.82, 0 73.5 M0 73.5 C0.19 56.11, -0.66 39.7, 0 24.5 M0 73.5 C-0.95 55.4, 0.54 37.7, 0 24.5 M0 24.5 C-1.02 8.13, 7.91 -0.14, 24.5 0 M0 24.5 C-0.57 9.06, 6.41 -0.75, 24.5 0" stroke="#1e1e1e" stroke-width="2" fill="none"></path></g><g transform="translate(806.4801486787339 1905.090709989029) rotate(0 82.57992553710938 12.5)"><text x="82.57992553710938" y="0" font-family="Virgil, Segoe UI Emoji" font-size="20px" fill="#1e1e1e" text-anchor="middle" style="white-space: pre;" direction="ltr" dominant-baseline="text-before-edge">Create New files</text></g><g transform="translate(826.6358632339541 1759.9543657729425) rotate(0 63.91993713378906 12.5)"><text x="0" y="0" font-family="Virgil, Segoe UI Emoji" font-size="20px" fill="#1e1e1e" text-anchor="start" style="white-space: pre;" direction="ltr" dominant-baseline="text-before-edge">Doesnt exist</text></g><g transform="translate(1072.393420496028 1763.8937412168345) rotate(0 63.079933166503906 12.5)"><text x="0" y="0" font-family="Virgil, Segoe UI Emoji" font-size="20px" fill="#1e1e1e" text-anchor="start" style="white-space: pre;" direction="ltr" dominant-baseline="text-before-edge">Existing files</text></g><g stroke-linecap="round" transform="translate(1064.817736902278 1871.4695357835958) rotate(0 96.969687721946 48.78786954012787)"><path d="M24.39 0 C58.93 1.79, 90.46 0.01, 169.55 0 M24.39 0 C80.45 0.04, 134.96 0.54, 169.55 0 M169.55 0 C185.24 -1.36, 194.66 7.69, 193.94 24.39 M169.55 0 C185.93 -2.22, 195.98 7.46, 193.94 24.39 M193.94 24.39 C191.65 40.69, 194.11 52.22, 193.94 73.18 M193.94 24.39 C194.34 35.22, 193.11 44.36, 193.94 73.18 M193.94 73.18 C192.57 87.7, 187.03 97.26, 169.55 97.58 M193.94 73.18 C191.75 91.03, 183.59 95.9, 169.55 97.58 M169.55 97.58 C123.42 99.23, 78.13 100.01, 24.39 97.58 M169.55 97.58 C120.03 97.53, 71.82 96.95, 24.39 97.58 M24.39 97.58 C7.65 96.83, -1.03 90.17, 0 73.18 M24.39 97.58 C6.8 96.08, -2.27 89.36, 0 73.18 M0 73.18 C-1.51 56.83, 0.95 43.53, 0 24.39 M0 73.18 C0.36 60.83, 1.05 49.77, 0 24.39 M0 24.39 C1.9 9.04, 8.45 -0.77, 24.39 0 M0 24.39 C1.25 7.04, 8.78 -2.04, 24.39 0" stroke="#1e1e1e" stroke-width="2" fill="none"></path></g><g transform="translate(1086.1474938991264 1895.2574053237236) rotate(0 75.63993072509766 25)"><text x="75.63993072509766" y="0" font-family="Virgil, Segoe UI Emoji" font-size="20px" fill="#1e1e1e" text-anchor="middle" style="white-space: pre;" direction="ltr" dominant-baseline="text-before-edge">Read file and </text><text x="75.63993072509766" y="25" font-family="Virgil, Segoe UI Emoji" font-size="20px" fill="#1e1e1e" text-anchor="middle" style="white-space: pre;" direction="ltr" dominant-baseline="text-before-edge">append function</text></g><g stroke-linecap="round"><g transform="translate(490.6207269775923 1135.5957520940397) rotate(0 -172.12874827273185 49.674955793321146)"><path d="M0.94 0.31 C-7.11 8.97, 3.69 42.07, -48.28 51.84 C-100.25 61.61, -261.39 51.04, -310.88 58.93 C-360.36 66.83, -339.59 92.27, -345.19 99.23 M-0.03 -0.58 C-8.14 7.79, 3.28 40.23, -48.68 50.33 C-100.63 60.44, -262.39 51.77, -311.75 60.04 C-361.12 68.31, -339.24 93.03, -344.87 99.93" stroke="#1e1e1e" stroke-width="2" fill="none"></path></g><g transform="translate(490.6207269775923 1135.5957520940397) rotate(0 -172.12874827273185 49.674955793321146)"><path d="M-353.24 74.55 C-350.25 83.83, -346.31 89.3, -344.87 99.93 M-353.24 74.55 C-350.3 81.93, -349.44 88.41, -344.87 99.93" stroke="#1e1e1e" stroke-width="2" fill="none"></path></g><g transform="translate(490.6207269775923 1135.5957520940397) rotate(0 -172.12874827273185 49.674955793321146)"><path d="M-334.97 75.11 C-337.44 84.36, -338.96 89.67, -344.87 99.93 M-334.97 75.11 C-336.91 82.22, -340.91 88.55, -344.87 99.93" stroke="#1e1e1e" stroke-width="2" fill="none"></path></g></g><mask></mask><g stroke-linecap="round"><g transform="translate(532.8450498689638 1001.3308260919002) rotate(0 0.07592734806672752 20.089295170458513)"><path d="M-0.05 0.12 C0 6.79, 0.15 33.31, 0.2 39.95 M0.2 0.06 C0.23 6.74, 0.08 33.43, 0.08 40.12" stroke="#1e1e1e" stroke-width="2" fill="none"></path></g><g transform="translate(532.8450498689638 1001.3308260919002) rotate(0 0.07592734806672752 20.089295170458513)"><path d="M-6.7 21.3 C-4.75 26.05, -3.36 30.89, 0.08 40.12 M-6.7 21.3 C-4.61 27.05, -2.55 32.79, 0.08 40.12" stroke="#1e1e1e" stroke-width="2" fill="none"></path></g><g transform="translate(532.8450498689638 1001.3308260919002) rotate(0 0.07592734806672752 20.089295170458513)"><path d="M6.98 21.35 C5.47 26.08, 3.4 30.9, 0.08 40.12 M6.98 21.35 C4.86 27.08, 2.71 32.81, 0.08 40.12" stroke="#1e1e1e" stroke-width="2" fill="none"></path></g></g><mask></mask><g stroke-linecap="round"><g transform="translate(530.6894724241764 840.2196302097386) rotate(0 -0.4392534308444169 24.485602281485285)"><path d="M-0.08 0.12 C-0.25 8.27, -0.78 40.67, -0.98 48.78 M0.15 0.05 C-0.03 8.22, -0.84 40.77, -1.02 48.92" stroke="#1e1e1e" stroke-width="2" fill="none"></path></g><g transform="translate(530.6894724241764 840.2196302097386) rotate(0 -0.4392534308444169 24.485602281485285)"><path d="M-8.84 25.75 C-6.1 33.48, -4.03 40.41, -1.02 48.92 M-8.84 25.75 C-6.94 31.2, -4.97 36.82, -1.02 48.92" stroke="#1e1e1e" stroke-width="2" fill="none"></path></g><g transform="translate(530.6894724241764 840.2196302097386) rotate(0 -0.4392534308444169 24.485602281485285)"><path d="M7.88 26.15 C5.23 33.74, 1.92 40.54, -1.02 48.92 M7.88 26.15 C5.82 31.52, 3.83 37.05, -1.02 48.92" stroke="#1e1e1e" stroke-width="2" fill="none"></path></g></g><mask></mask></svg>